<svg xmlns="http://www.w3.org/2000/svg" width="512" height="512" fill="none" viewBox="0 0 512 512"><linearGradient id="a" gradientTransform="rotate(225)" gradientUnits="userSpaceOnUse"><stop offset="0" stop-color="#fc466b"/><stop offset="1" stop-color="#3f5efb"/></linearGradient><rect width="512" height="512" fill="url(#a)" rx="128"/><svg xmlns="http://www.w3.org/2000/svg" width="352" height="352" x="80" y="80" viewBox="0 0 15 15"><path fill="#fff" d="M8.49 5.08c-.82.32-1.53.88-2.02 1.61.24.35.49.7.79 1.05 1.18 1.44 2.19 2.36 2.89 2.92l3.12-2.22c-.44-.7-.79-1.26-.79-1.27l-1.15-2.43c-.72-.04-1.86-.03-2.84.35zM9.5 7.47c-.37 0-.66-.29-.66-.66 0-.36.29-.65.66-.65s.66.29.66.65c0 .37-.29.66-.66.66M6.68 2.09s-.03-.15.01-.33c.09-.36.25-.74.51-1C7.79.19 8.41.04 8.9 0v2.2l1.74 1.04.09.2c-.91.02-2.07.14-2.93.56-1.28.61-1.86 1.23-2.06 1.48-.82-1.52-1.09-2.71-1.16-3.03.83-.29 1.57-.37 2.1-.37zM15 11.22c-.39 1.56-1.97 2.63-3.64 2.39l-1.14-1.38 3.74-2.69c.55.88 1.04 1.68 1.04 1.68M5 15H1c-.55 0-1-.44-1-1V5.81c1.05-1.29 2.23-2.18 3.34-2.78.04.41.3 1.98 2.08 4.47 1.68 2.36 3.17 3.57 3.68 3.96-1.15.12-2.85-.02-4.13-1.07z"/></svg></svg>